Coordinates
version=1
nRows=60
nColumns=12
inDegrees=yes

Units are S.I. units (second, meters, Newtons, ...)
Angles are in degrees

endheader
time	SC_y	SC_z	SC_x	AC_y	AC_z	AC_x	GH_y	GH_z	GH_yy	EL_x	PS_y
       0.0              -13.64          10.31          27.32          54.21        -0.9694          14.77          112.1        -0.5043          9.306          80.04          115.8
   0.04065              -13.64          10.31          27.32          54.21        -0.9717          14.77          112.1        -0.5029          9.319          80.05          115.8
   0.08131              -13.64          10.31          27.31          54.21        -0.9741          14.77          112.1        -0.5013          9.333          80.05          115.8
     0.122              -13.64          10.32          27.31          54.21        -0.9767          14.77          112.0        -0.4997          9.347          80.06          115.8
    0.1626              -13.64          10.32          27.31          54.21        -0.9795          14.77          112.0         -0.498          9.362          80.06          115.8
    0.2033              -13.64          10.33           27.3          54.21        -0.9824          14.76          112.0        -0.4962          9.379          80.07          115.8
    0.2439              -13.64          10.33           27.3          54.21        -0.9856          14.76          111.9        -0.4942          9.396          80.08          115.8
    0.2846              -13.65          10.34          27.29          54.21         -0.989          14.76          111.9        -0.4921          9.415          80.08          115.7
    0.3252              -13.65          10.35          27.29          54.21        -0.9926          14.76          111.8        -0.4899          9.435          80.09          115.7
    0.3659              -13.65          10.35          27.28          54.21        -0.9964          14.76          111.8        -0.4875          9.456           80.1          115.7
    0.4065              -13.65          10.36          27.27           54.2         -1.001          14.76          111.7        -0.4849          9.479          80.11          115.7
    0.4472              -13.65          10.37          27.27           54.2         -1.005          14.76          111.7        -0.4821          9.504          80.11          115.7
    0.4879              -13.65          10.38          27.26           54.2          -1.01          14.76          111.6        -0.4792           9.53          80.12          115.6
    0.5285              -13.65          10.38          27.25           54.2         -1.015          14.76          111.6        -0.4759          9.559          80.13          115.6
    0.5692              -13.65          10.39          27.24           54.2         -1.021          14.76          111.5        -0.4724          9.591          80.14          115.6
    0.6098              -13.65          10.41          27.23           54.2         -1.027          14.76          111.4        -0.4686          9.624          80.16          115.5
    0.6505              -13.65          10.42          27.22           54.2         -1.033          14.76          111.4        -0.4645          9.661          80.17          115.5
    0.6911              -13.65          10.43          27.21           54.2         -1.041          14.76          111.3          -0.46          9.701          80.18          115.5
    0.7318              -13.65          10.44           27.2           54.2         -1.049          14.75          111.2        -0.4551          9.745           80.2          115.4
    0.7724              -13.65          10.46          27.18           54.2         -1.057          14.75          111.1        -0.4497          9.793          80.22          115.4
    0.8131              -13.65          10.47          27.17           54.2         -1.067          14.75          111.0        -0.4438          9.845          80.23          115.3
    0.8538              -13.65          10.49          27.15           54.2         -1.077          14.75          110.8        -0.4374          9.903          80.25          115.3
    0.8944              -13.66          10.51          27.14           54.2         -1.089          14.75          110.7        -0.4302          9.967          80.28          115.2
    0.9351              -13.66          10.53          27.12           54.2         -1.102          14.75          110.5        -0.4223          10.04           80.3          115.1
    0.9757              -13.66          10.56          27.09           54.2         -1.116          14.74          110.4        -0.4134          10.12          80.33          115.1
     1.016              -13.66          10.59          27.07           54.2         -1.132          14.74          110.2        -0.4036           10.2          80.36          115.0
     1.057              -13.66          10.62          27.04          54.19         -1.149          14.74          110.0        -0.3925           10.3          80.39          114.9
     1.098              -13.66          10.65          27.01          54.19         -1.169          14.73          109.7        -0.3801          10.41          80.43          114.8
     1.138              -13.67          10.69          26.98          54.19         -1.192          14.73          109.4        -0.3661          10.54          80.48          114.7
     1.179              -13.67          10.73          26.94          54.19         -1.218          14.73          109.1        -0.3502          10.68          80.53          114.5
      1.22              -13.67          10.78          26.89          54.19         -1.247          14.72          108.8         -0.332          10.84          80.58          114.4
      1.26              -13.68          10.84          26.84          54.19         -1.281          14.72          108.4        -0.3111          11.03          80.65          114.2
     1.301              -13.68          10.91          26.78          54.18         -1.319          14.71          107.9        -0.2871          11.24          80.72          114.0
     1.342              -13.69          10.99          26.71          54.18         -1.364           14.7          107.4        -0.2591          11.49          80.81          113.7
     1.382              -13.69          11.08          26.63          54.18         -1.417          14.69          106.7        -0.2263          11.78          80.91          113.5
     1.423               -13.7          11.18          26.53          54.17         -1.479          14.68          106.0        -0.1877          12.13          81.04          113.1
     1.464              -13.71          11.31          26.42          54.17         -1.553          14.67          105.1        -0.1419          12.54          81.18          112.7
     1.504              -13.72          11.46          26.28          54.16         -1.642          14.66          104.0       -0.08688          13.03          81.35          112.3
     1.545              -13.73          11.65          26.11          54.15         -1.749          14.64          102.7       -0.02036          13.62          81.56          111.7
     1.586              -13.74          11.87          25.91          54.15          -1.88          14.62          101.2         0.0609          14.35          81.81          111.0
     1.626              -13.76          12.15          25.66          54.13         -2.042          14.59          99.23         0.1612          15.24          82.13          110.1
     1.667              -13.78           12.5          25.35          54.12         -2.243          14.56          96.81         0.2863          16.36          82.52          109.1
     1.708              -13.81          12.93          24.95           54.1         -2.497          14.52          93.76         0.4438          17.76          83.01          107.7
     1.748              -13.84          13.49          24.45          54.08          -2.82          14.46          89.88         0.6441          19.55          83.64          106.0
     1.789              -13.89           14.2          23.81          54.05         -3.233           14.4          84.91         0.9004          21.83          84.44          103.8
     1.829              -13.94          15.11          22.99          54.02         -3.763          14.31          78.54          1.229          24.76          85.47          101.0
      1.87              -14.02          16.28          21.94          53.97          -4.44           14.2           70.4           1.65          28.51          86.78          97.37
     1.911              -14.11          17.74          20.62          53.91         -5.291          14.06          60.17          2.178          33.22          88.44          92.84
     1.951              -14.22          19.53          19.01          53.84         -6.329          13.89           47.7          2.822          38.96          90.45          87.32
     1.992              -14.35          21.59          17.15          53.76         -7.531          13.69          33.24          3.568          45.62          92.79          80.92
     2.033              -14.49          23.83          15.13          53.68         -8.833          13.48          17.59          4.376          52.82          95.32          73.99
     2.073              -14.63          26.07          13.11          53.59         -10.14          13.26          1.938          5.184          60.03          97.85          67.05
     2.114              -14.76          28.14          11.25          53.51         -11.34          13.06         -12.52          5.931          66.68          100.2          60.65
     2.155              -14.87          29.93          9.637          53.44         -12.38          12.89         -24.99          6.575          72.42          102.2          55.13
     2.195              -14.97          31.39          8.317          53.38         -13.23          12.75         -35.22          7.103          77.13          103.8           50.6
     2.236              -15.04          32.56          7.267          53.33          -13.9          12.64         -43.36          7.523          80.88          105.2          46.99
     2.277               -15.1          33.47          6.445           53.3         -14.43          12.56         -49.73          7.852          83.81          106.2          44.17
     2.317              -15.14          34.18          5.805          53.27         -14.85          12.49          -54.7          8.108           86.1          107.0          41.97
     2.358              -15.18          34.73          5.305          53.25         -15.17          12.44         -58.58          8.309          87.89          107.6          40.25
     2.399               -15.2          35.17          4.911          53.23         -15.42          12.39         -61.63          8.466          89.29          108.1           38.9
